<svg xmlns="http://www.w3.org/2000/svg" width="73" height="63" viewBox="0 0 73 63"><g><g><path fill="#fff" d="M52.101.04c-5.398 0-9.725 1.933-13.542 5.738a.045.045 0 0 0-.006.006l-.002.002-2.169 2.722-2.17-2.559-.006-.007C30.387 2.135 26.06.04 20.662.04a20.108 20.108 0 0 0-14.29 5.901C2.555 9.747.452 14.806.452 20.188c0 5.38 2.1 10.436 5.913 14.242L33.193 61.4a4.498 4.498 0 0 0 6.378 0L66.396 34.43c3.814-3.805 5.915-8.863 5.915-14.242 0-5.382-2.102-10.442-5.92-14.248A20.11 20.11 0 0 0 52.102.04z"/></g></g></svg>