<svg xmlns="http://www.w3.org/2000/svg" width="21" height="20" viewBox="0 0 21 20"><g><g><path fill="#fff" d="M18.455 20H3.182C1.776 20 .636 18.88.636 17.5v-15c0-1.381 1.14-2.5 2.546-2.5h15.273C19.86 0 21 1.119 21 2.5v15c0 1.38-1.14 2.5-2.545 2.5zM10.818 6.125a3.947 3.947 0 0 0-3.578 2.25h-.004c-.006.014-.01.029-.017.043a3.71 3.71 0 0 0-.102.25c-.015.041-.032.081-.046.122-.029.087-.053.176-.075.266-.011.041-.024.082-.033.125a3.78 3.78 0 0 0-.049.287c-.005.04-.014.078-.018.117a3.823 3.823 0 0 0-.023.415c0 2.14 1.766 3.875 3.945 3.875 2.18 0 3.946-1.735 3.946-3.875 0-.14-.009-.278-.024-.415-.004-.04-.012-.078-.018-.117a3.833 3.833 0 0 0-.048-.287c-.01-.043-.023-.084-.033-.125a3.787 3.787 0 0 0-.076-.266l-.045-.121a3.715 3.715 0 0 0-.103-.251c-.006-.014-.01-.03-.017-.043h-.004a3.947 3.947 0 0 0-3.578-2.25zM18.71 3.25c0-.553-.456-1-1.018-1h-2.036c-.563 0-1.019.447-1.019 1v2c0 .552.456 1 1.019 1h2.036a1.01 1.01 0 0 0 1.018-1zm0 5.125h-1.877A6.02 6.02 0 0 1 17.054 10c0 3.383-2.792 6.125-6.236 6.125S4.582 13.383 4.582 10c0-.563.077-1.108.222-1.625H2.927v8.375c0 .552.456 1 1.018 1h13.746a1.01 1.01 0 0 0 1.018-1z"/><path fill="#e4e4e4" d="M18.455 20H3.182C1.776 20 .636 18.88.636 17.5v-15c0-1.381 1.14-2.5 2.546-2.5h15.273C19.86 0 21 1.119 21 2.5v15c0 1.38-1.14 2.5-2.545 2.5zM10.818 6.125a3.947 3.947 0 0 0-3.578 2.25h-.004c-.006.014-.01.029-.017.043a3.71 3.71 0 0 0-.102.25c-.015.041-.032.081-.046.122-.029.087-.053.176-.075.266-.011.041-.024.082-.033.125a3.78 3.78 0 0 0-.049.287c-.005.04-.014.078-.018.117a3.823 3.823 0 0 0-.023.415c0 2.14 1.766 3.875 3.945 3.875 2.18 0 3.946-1.735 3.946-3.875 0-.14-.009-.278-.024-.415-.004-.04-.012-.078-.018-.117a3.833 3.833 0 0 0-.048-.287c-.01-.043-.023-.084-.033-.125a3.787 3.787 0 0 0-.076-.266l-.045-.121a3.715 3.715 0 0 0-.103-.251c-.006-.014-.01-.03-.017-.043h-.004a3.947 3.947 0 0 0-3.578-2.25zM18.71 3.25c0-.553-.456-1-1.018-1h-2.036c-.563 0-1.019.447-1.019 1v2c0 .552.456 1 1.019 1h2.036a1.01 1.01 0 0 0 1.018-1zm0 5.125h-1.877A6.02 6.02 0 0 1 17.054 10c0 3.383-2.792 6.125-6.236 6.125S4.582 13.383 4.582 10c0-.563.077-1.108.222-1.625H2.927v8.375c0 .552.456 1 1.018 1h13.746a1.01 1.01 0 0 0 1.018-1z"/></g></g></svg>