<svg xmlns="http://www.w3.org/2000/svg" width="64" height="54" viewBox="0 0 64 54"><g><g><path fill="#fff" d="M62.708 18.466l-.03.021h-.001l-25.97 17.98-.001-.003a2.981 2.981 0 0 1-3.37.031v.001l-.01-.007c-.002 0-.004-.002-.005-.003L19.9 27.539 6 35.716V48h55a3 3 0 0 1 0 6H3a3 3 0 0 1-3-3V3a3 3 0 1 1 6 0v25.755l12.479-7.34.006.01A2.97 2.97 0 0 1 20 21c.616 0 1.187.187 1.664.505v-.001l.01.007.005.003 13.29 8.86 24.323-16.84.002.002A2.981 2.981 0 0 1 61 13a3 3 0 0 1 3 3 2.994 2.994 0 0 1-1.294 2.464z"/></g></g></svg>