<svg xmlns="http://www.w3.org/2000/svg" width="19" height="13" viewBox="0 0 19 13"><g><g><path fill="#fff" d="M12.95 5.832L18.735.256a.88.88 0 0 1 .265.63v11.227a.879.879 0 0 1-.24.602zM.296.23A.886.886 0 0 1 .891 0h17.218c.23 0 .437.088.595.23L9.5 7.386zM.24 12.715a.879.879 0 0 1-.24-.602V.886a.88.88 0 0 1 .265-.63L6.05 5.832zM9.5 9.16l2.415-2.328 6.805 5.925a.888.888 0 0 1-.61.244H.89a.888.888 0 0 1-.61-.244l6.805-5.925z"/><path fill="#323232" d="M12.95 5.832L18.735.256a.88.88 0 0 1 .265.63v11.227a.879.879 0 0 1-.24.602zM.296.23A.886.886 0 0 1 .891 0h17.218c.23 0 .437.088.595.23L9.5 7.386zM.24 12.715a.879.879 0 0 1-.24-.602V.886a.88.88 0 0 1 .265-.63L6.05 5.832zM9.5 9.16l2.415-2.328 6.805 5.925a.888.888 0 0 1-.61.244H.89a.888.888 0 0 1-.61-.244l6.805-5.925z"/></g></g></svg>