<svg xmlns="http://www.w3.org/2000/svg" width="16" height="21" viewBox="0 0 16 21"><g><g><path fill="#fff" d="M8 21S0 12.224 0 7.875 3.582 0 8 0s8 3.526 8 7.875S8 21 8 21zM8 2.625c-2.945 0-5.333 2.35-5.333 5.25s2.388 5.25 5.333 5.25c2.945 0 5.333-2.35 5.333-5.25S10.945 2.625 8 2.625zM8 10.5c-1.473 0-2.667-1.175-2.667-2.625S6.527 5.25 8 5.25c1.473 0 2.667 1.175 2.667 2.625S9.473 10.5 8 10.5z"/><path fill="#323232" d="M8 21S0 12.224 0 7.875 3.582 0 8 0s8 3.526 8 7.875S8 21 8 21zM8 2.625c-2.945 0-5.333 2.35-5.333 5.25s2.388 5.25 5.333 5.25c2.945 0 5.333-2.35 5.333-5.25S10.945 2.625 8 2.625zM8 10.5c-1.473 0-2.667-1.175-2.667-2.625S6.527 5.25 8 5.25c1.473 0 2.667 1.175 2.667 2.625S9.473 10.5 8 10.5z"/></g></g></svg>